<?xml version="1.0" encoding="utf-8"?>
<!-- Generator: Adobe Illustrator 24.0.0, SVG Export Plug-In . SVG Version: 6.00 Build 0)  -->
<svg version="1.1" id="Capa_1" xmlns="http://www.w3.org/2000/svg" xmlns:xlink="http://www.w3.org/1999/xlink" x="0px" y="0px"
	 viewBox="0 0 298.1 258.9" style="enable-background:new 0 0 298.1 258.9;" xml:space="preserve">
<style type="text/css">
	.st0{fill:url(#SVGID_1_);}
	.st1{fill:url(#SVGID_2_);}
	.st2{fill:url(#SVGID_3_);}
	.st3{fill:url(#SVGID_4_);}
	.st4{fill:url(#SVGID_5_);}
	.st5{fill:url(#SVGID_6_);}
	.st6{fill:#81613C;}
	.st7{fill:#E5B449;}
	.st8{fill:#A28051;}
	.st9{fill:#CAB66B;}
	.st10{fill:#716858;}
	.st11{fill:#BB9D6C;}
	.st12{fill:#594E41;}
</style>
<radialGradient id="SVGID_1_" cx="216.1079" cy="-274.9431" r="243.6456" gradientTransform="matrix(0.5949 0 0 0.1013 20.26 311.0879)" gradientUnits="userSpaceOnUse">
	<stop  offset="0" style="stop-color:#C2C3C8"/>
	<stop  offset="1" style="stop-color:#FFFFFF;stop-opacity:0"/>
</radialGradient>
<ellipse class="st0" cx="148.8" cy="283.2" rx="144.9" ry="24.7"/>
<path class="st7" d="M20.9,133.2c0.1-2,0.1-3.7,0.3-5.5c0.8-10.7,0.4-21.6-2.4-32.1C17.2,90,14.5,84.6,11,79.9
	c-0.7-1-1.5-1.9-2.4-3.1c-1.4,3.5-2.5,6.7-3.5,10c-3.3,11.1-3.3,24.1,2.1,33.8C10.4,126.1,14.7,130.3,20.9,133.2z M51.6,209
	c0.1,0.1,0.2,0.2,0.4,0.3c2.8-6.3,4.8-13.2,4.7-20.1c-0.2-7.4-1.6-15.1-4.5-22c-1-2.2-1.9-4.5-2.7-6.8c-0.1-0.1-0.3-0.2-0.4-0.2
	c-1.9,2.2-3.8,4.6-5.7,6.8c-2.2,2.7-3.5,6.3-4,10.6c-1.3,10.6,2.9,20,9.1,27.8C49.3,206.6,50.5,207.8,51.6,209z M38,122.3
	c5.3-6.6,9-14.6,10.8-22.9c0.5-2.3,1-4.7,1.7-7.3c-1.3,0.1-2.4,0.2-3.5,0.4c-5.5,0.7-10.2,3.4-14,6.8c-7.2,6.6-10,18.3-9.2,28.5
	c0.1,1.7,0.3,3.4,0.5,5.3C29.5,130.3,34.3,126.9,38,122.3z M25.6,91.3c0.7-1.9,1.4-3.6,2.1-5.4c2.5-6.4,4.9-12.9,6.2-19.5
	c2.1-11,2.5-21.8-1.7-32.6c-1.5,1.6-2.8,3.1-4.1,4.7c-5.1,6.3-9.6,14.1-11,21.8C14.9,71.5,16.5,82.9,25.6,91.3z M32.1,173.5
	c2.9-3.3,6-7.1,8-11c2.8-5.4,4.4-11.4,5.1-17.5c0.6-4.7,0.2-9.8-0.2-14.4c-0.1-1.4-0.3-2.8-0.4-4.5c-8.2,2.9-13.2,9.1-16.1,16.7
	c-3,8.1-1.4,17.7,1.5,25.6C30.6,170,31.4,171.7,32.1,173.5z M124,3.6c-22-4.1-48.5,5.5-57.7,27.1C87.3,26,106.3,15.5,124,3.6z
	 M29,92.3c9.8-1.5,18.2-6,25.2-12.9c4.1-4.1,7.4-9,10.5-13.9c0.8-1.2,1.5-2.5,2.3-3.8c-10.9-3.3-20.1,0.3-27.6,7.6
	c-4.6,4.4-7.5,11-9.2,17.4C29.7,88.5,29.4,90.4,29,92.3z M61.8,37.9c-5,3.1-8.7,7.2-12.3,12.2c-1.1,1.5-2,3.1-3,4.9
	c8.7,1.5,17.7,0.6,25.7-2.9c6.6-2.9,12.7-6.8,18.6-11.1c1.3-0.9,2.6-2,4.2-3.1c-2.1-1.2-4.2-2.3-6.4-3.2
	C79.3,30.7,69.2,33.3,61.8,37.9z M47.3,48.4c3.9-4.5,7.8-9.1,11.2-13.9C64,26.6,69.2,17.4,70.7,7.6c0.4-2.5,0.5-5,0.9-7.6
	c-2.5,1.2-4.6,2.3-6.6,3.5c-8.4,5.1-17,12-21.2,21.1c-4.3,9.3-5.5,18.8-0.4,28.4C44.8,51.3,46.1,49.9,47.3,48.4z M49,211.7
	c-0.1-0.2-0.1-0.4-0.2-0.5c-0.9-1.4-1.8-2.8-2.7-4.2c-5.4-8.8-11.6-17.3-19.6-23.9c-3.5-2.9-6.9-5.4-10.4-6.5c-3-1-6-2.3-9-3.6
	c-0.1,0.2-0.1,0.4-0.2,0.6c0.8,3.4,1.8,6.7,2.8,10c3.2,9.7,9.4,19.1,17.8,24.2C34.2,211.7,40.9,213.2,49,211.7z M68.9,196.8
	c-1.6-1.8-3.1-3.6-4.8-5.6c-3.1,4.7-4.3,9.5-4.6,14.7c-0.4,7.7,4.1,15.2,9,20.9c3.1,3.5,7.9,6.7,12.1,8.9c0.9,0.5,1.8,0.9,2.8,1.4
	c0.2-5.9,0-10.8-1.3-16.3C80,212.1,74.9,203.7,68.9,196.8z M66.5,229.2c-6.8-4.4-14.1-8.4-22-10.6c-5.4-1.5-11.1-1.7-16.7-1.3
	c2,3.2,3.9,6.1,5.9,8.7c7.6,9.6,17.9,17.1,30.8,18.3c6,0.5,11.7-1.2,16.9-4.2c-0.9-0.7-1.7-1.3-2.6-1.9
	C74.8,235.2,70.7,231.9,66.5,229.2z M15.7,169.8c3.6,2.7,8.7,4.3,13.1,4.9c-0.5-1.9-1-3.7-1.4-5.4c-2-8.7-4.8-17.6-9.2-25.3
	c-4.4-7.8-10-14.2-17.9-19c-0.2,2.3-0.4,4.3-0.4,6.4c0,6.8,0.3,13.9,2.8,20.2C5.5,158.6,9.4,165.1,15.7,169.8z M251.7,55
	c-1-1.7-2-3.4-3-4.9c-3.6-5-7.3-9.1-12.3-12.2c-7.4-4.6-17.5-7.2-26.7-3.3c-2.2,0.9-4.2,2.1-6.4,3.2c1.6,1.1,2.9,2.2,4.2,3.1
	c5.9,4.3,11.9,8.2,18.6,11.1C234,55.5,243,56.4,251.7,55z M231.1,61.7c0.8,1.3,1.6,2.5,2.3,3.8c3,4.9,6.3,9.8,10.5,13.9
	c7,6.9,15.4,11.4,25.2,12.9c-0.4-1.9-0.8-3.7-1.2-5.5c-1.6-6.4-4.6-13-9.2-17.4C251.2,62,242,58.4,231.1,61.7z M249.2,160.1
	c-0.1,0.1-0.3,0.2-0.4,0.2c-0.8,2.3-1.8,4.6-2.7,6.8c-3,6.9-4.4,14.6-4.5,22c-0.2,6.9,1.9,13.8,4.7,20.1c0.2-0.1,0.3-0.2,0.4-0.3
	c1.1-1.2,2.2-2.4,3.2-3.6c6.2-7.8,10.5-17.3,9.1-27.8c-0.5-4.2-1.8-7.9-4-10.6C253,164.6,251.2,162.3,249.2,160.1z M277,127.8
	c0.1,1.7,0.2,3.5,0.3,5.5c6.2-3,10.5-7.1,13.6-12.7c5.5-9.7,5.5-22.7,2.1-33.8c-1-3.3-2.1-6.5-3.5-10c-0.9,1.1-1.6,2.1-2.4,3.1
	c-3.5,4.8-6.2,10.1-7.7,15.9C276.6,106.1,276.2,117,277,127.8z M268.1,168.4c2.9-8,4.6-17.5,1.5-25.6c-2.9-7.6-7.9-13.8-16.1-16.7
	c-0.1,1.6-0.3,3.1-0.4,4.5c-0.5,4.6-0.8,9.8-0.2,14.4c0.7,6,2.4,12,5.1,17.5c2,4,5,7.7,8,11C266.8,171.7,267.5,170,268.1,168.4z
	 M270.5,85.9c0.7,1.8,1.4,3.5,2.1,5.4c9.1-8.3,10.7-19.8,8.6-30.9c-1.4-7.7-5.9-15.6-11-21.8c-1.3-1.6-2.7-3.1-4.1-4.7
	c-4.2,10.7-3.8,21.6-1.7,32.6C265.6,73,268,79.5,270.5,85.9z M274.3,127.8c0.8-10.2-1.9-21.9-9.2-28.5c-3.8-3.5-8.5-6.2-14-6.8
	c-1.1-0.1-2.2-0.2-3.5-0.4c0.7,2.6,1.2,4.9,1.7,7.3c1.8,8.3,5.4,16.3,10.8,22.9c3.7,4.6,8.6,8,13.7,10.8
	C274,131.2,274.1,129.5,274.3,127.8z M229.7,226.8c4.9-5.7,9.4-13.2,9-20.9c-0.3-5.2-1.5-10.1-4.6-14.7c-1.6,2.1-3.2,3.9-4.8,5.6
	c-6.1,6.9-11.2,15.3-13.2,24c-1.3,5.5-1.4,10.5-1.3,16.3c1-0.5,1.9-0.9,2.8-1.4C221.8,233.5,226.6,230.4,229.7,226.8z M253.7,218.6
	c-7.9,2.2-15.2,6.2-22,10.6c-4.2,2.7-8.3,6-12.4,9.1c-0.8,0.6-1.7,1.3-2.6,1.9c5.2,2.9,10.9,4.7,16.9,4.2
	c12.9-1.2,23.2-8.7,30.8-18.3c2.1-2.6,3.9-5.5,5.9-8.7C264.7,216.9,259.1,217.1,253.7,218.6z M149.1,254.5
	c-21.7-0.8-41.8-5.2-61.2-15.2c-0.7,1.3-1.4,2.6-2.2,3.8c20,10.3,40.8,15,63.2,15.7c0,0,0,0,0,0c0.1,0,0.1,0,0.2,0
	c0.1,0,0.1,0,0.2,0c0,0,0,0,0,0c22.4-0.7,43.2-5.4,63.2-15.7c-0.7-1.3-1.4-2.5-2.2-3.8C190.9,249.3,170.8,253.7,149.1,254.5z
	 M174.1,3.6c17.7,11.9,36.7,22.4,57.7,27.1C222.7,9.1,196.1-0.5,174.1,3.6z M239.7,34.5c3.4,4.8,7.2,9.4,11.2,13.9
	c1.2,1.4,2.5,2.9,3.8,4.5c5.1-9.6,3.9-19-0.4-28.4c-4.2-9.1-12.7-15.9-21.2-21.1c-1.9-1.2-4.1-2.2-6.6-3.5c0.4,2.6,0.6,5.1,0.9,7.6
	C228.9,17.4,234.2,26.6,239.7,34.5z M282,176.6c-3.5,1.1-6.9,3.6-10.4,6.5c-8,6.7-14.2,15.1-19.6,23.9c-0.9,1.4-1.8,2.8-2.7,4.2
	c-0.1,0.1-0.1,0.3-0.2,0.5c8.1,1.5,14.8,0.1,21.4-3.9c8.4-5.1,14.6-14.5,17.8-24.2c1.1-3.3,2-6.7,2.8-10c-0.1-0.2-0.1-0.4-0.2-0.6
	C288,174.3,285,175.6,282,176.6z M297.7,124.9c-7.8,4.9-13.4,11.3-17.9,19c-4.4,7.7-7.2,16.6-9.2,25.3c-0.4,1.7-0.9,3.5-1.4,5.4
	c4.4-0.6,9.5-2.2,13.1-4.9c6.4-4.8,10.2-11.3,13-18.4c2.4-6.3,2.8-13.4,2.8-20.2C298.1,129.3,297.9,127.2,297.7,124.9z"/>
</svg>
