<?xml version="1.0" encoding="UTF-8" standalone="no"?>
<svg
		xmlns:dc="http://purl.org/dc/elements/1.1/"
		xmlns:cc="http://creativecommons.org/ns#"
		xmlns:rdf="http://www.w3.org/1999/02/22-rdf-syntax-ns#"
		xmlns:svg="http://www.w3.org/2000/svg"
		xmlns="http://www.w3.org/2000/svg"
		viewBox="0 0 771.62663 217.93599"
		height="217.93599"
		width="771.62665"
		xml:space="preserve"
		id="svg2"
		version="1.1"><metadata
     id="metadata8"><rdf:RDF><cc:Work
         rdf:about=""><dc:format>image/svg+xml</dc:format><dc:type
		rdf:resource="http://purl.org/dc/dcmitype/StillImage" /></cc:Work></rdf:RDF></metadata><defs
		id="defs6"><clipPath
       id="clipPath26"
       clipPathUnits="userSpaceOnUse"><path
         id="path24"
         d="M 0,595.28 H 841.89 V 0 H 0 Z" /></clipPath></defs><g
		transform="matrix(1.3333333,0,0,-1.3333333,-175.44666,505.82119)"
		id="g10"><g
       transform="translate(272.3193,277.4844)"
       id="g12"><path
         id="path14"
         style="fill:#63b558;fill-opacity:1;fill-rule:nonzero;stroke:none"
         d="M 0,0 -1.032,-6.5 H 10.059 L 8.718,-15.063 H -2.373 L -4.797,-30.331 H -14.908 L -8.77,8.563 H 13.567 L 12.225,0 Z" /></g><g
		transform="translate(306.0545,274.0281)"
		id="g16"><path
         id="path18"
         style="fill:#63b558;fill-opacity:1;fill-rule:nonzero;stroke:none"
         d="m 0,0 h -0.103 l -6.138,-12.38 h 8.408 z m -10.266,-20.117 -3.764,-6.758 H -24.761 L -3.663,12.02 h 11.04 l 8.511,-38.895 H 5.107 l -1.444,6.758 z" /></g><g
		id="g20"><g
         clip-path="url(#clipPath26)"
         id="g22"><g
           transform="translate(353.3033,276.0403)"
           id="g28"><path
             id="path30"
             style="fill:#63b558;fill-opacity:1;fill-rule:nonzero;stroke:none"
             d="m 0,0 c -1.651,1.547 -3.817,2.579 -6.293,2.579 -1.857,0 -4.539,-1.083 -4.849,-3.249 -0.361,-2.27 2.219,-3.147 3.87,-3.715 l 2.475,-0.774 c 5.158,-1.599 8.925,-4.332 7.893,-10.626 -0.619,-3.868 -2.166,-7.84 -5.674,-10.471 -3.457,-2.58 -7.687,-3.663 -11.607,-3.663 -4.9,0 -9.44,1.651 -12.999,4.436 l 5.622,8.151 c 2.218,-2.218 4.9,-4.024 8.356,-4.024 2.374,0 5.107,1.186 5.521,3.92 0.464,2.838 -3.354,3.817 -5.417,4.437 -6.087,1.806 -10.008,3.456 -8.769,10.987 1.238,7.893 7.686,13.051 15.475,13.051 3.921,0 8.511,-1.238 11.658,-3.199 z" /></g><g
		transform="translate(376.8761,247.153)"
		id="g32"><path
             id="path34"
             style="fill:#63b558;fill-opacity:1;fill-rule:nonzero;stroke:none"
             d="m 0,0 h -10.11 l 4.797,30.331 h -8.356 l 1.341,8.564 H 14.496 L 13.155,30.331 H 4.798 Z" /></g><g
		transform="translate(404.6282,268.1999)"
		id="g36"><path
             id="path38"
             style="fill:#2c9a42;fill-opacity:1;fill-rule:nonzero;stroke:none"
             d="m 0,0 h 1.702 c 3.662,0 7.274,0 7.996,4.746 0.773,4.9 -2.58,4.952 -6.5,4.952 H 1.496 Z M -7.326,17.848 H 8.15 c 8.357,0 13.567,-3.869 12.123,-12.794 C 18.827,-4.128 13.257,-8.151 4.436,-8.151 h -5.725 l -2.064,-12.896 h -10.111 z" /></g><g
		transform="translate(444.9662,274.0281)"
		id="g40"><path
             id="path42"
             style="fill:#2c9a42;fill-opacity:1;fill-rule:nonzero;stroke:none"
             d="m 0,0 h -0.103 l -6.138,-12.38 h 8.408 z m -10.266,-20.117 -3.766,-6.758 H -24.761 L -3.663,12.02 H 7.376 l 8.511,-38.895 H 5.107 l -1.444,6.758 z" /></g><g
		transform="translate(461.9361,286.0478)"
		id="g44"><path
             id="path46"
             style="fill:#2c9a42;fill-opacity:1;fill-rule:nonzero;stroke:none"
             d="M 0,0 H 12.121 L 17.745,-10.575 26.668,0 H 38.791 L 21.253,-20.222 18.313,-38.895 H 8.202 l 2.94,18.673 z" /></g><g
		transform="translate(527.6525,271.0365)"
		id="g48"><path
             id="path50"
             style="fill:#00783f;fill-opacity:1;fill-rule:nonzero;stroke:none"
             d="M 0,0 2.374,15.011 H 12.483 L 6.345,-23.884 H -3.766 l 2.528,15.94 h -14.598 l -2.528,-15.94 h -10.111 l 6.14,38.895 h 10.109 L -14.598,0 Z" /></g><g
		transform="translate(554.6299,267.2713)"
		id="g52"><path
             id="path54"
             style="fill:#00783f;fill-opacity:1;fill-rule:nonzero;stroke:none"
             d="m 0,0 c -1.084,-6.706 3.095,-11.607 9.13,-11.607 6.034,0 11.761,4.901 12.844,11.607 C 22.8,5.364 18.621,10.265 12.586,10.265 6.551,10.265 0.824,5.364 0,0 m 32.498,0.052 c -2.013,-12.587 -12.433,-21.46 -24.916,-21.46 -12.482,0 -20.118,8.873 -18.106,21.46 1.857,11.76 13.464,20.014 24.657,20.014 11.194,0 20.222,-8.254 18.365,-20.014" /></g><g
		transform="translate(606.3661,247.153)"
		id="g56"><path
             id="path58"
             style="fill:#00783f;fill-opacity:1;fill-rule:nonzero;stroke:none"
             d="m 0,0 h -10.109 l 4.797,30.331 h -8.357 l 1.341,8.564 H 14.497 L 13.154,30.331 H 4.797 Z" /></g><g
		transform="translate(635.5623,277.4844)"
		id="g60"><path
             id="path62"
             style="fill:#00783f;fill-opacity:1;fill-rule:nonzero;stroke:none"
             d="m 0,0 -1.033,-6.5 h 11.4 l -1.341,-8.563 h -11.4 l -1.082,-6.705 H 8.563 L 7.221,-30.331 H -14.908 L -8.77,8.563 H 13.361 L 12.018,0 Z" /></g><g
		transform="translate(662.7445,255.7163)"
		id="g64"><path
             id="path66"
             style="fill:#00783f;fill-opacity:1;fill-rule:nonzero;stroke:none"
             d="m 0,0 h 12.123 l -1.341,-8.563 h -22.234 l 6.14,38.894 H 4.797 Z" /></g><g
		transform="translate(705.043,276.0403)"
		id="g68"><path
             id="path70"
             style="fill:#00783f;fill-opacity:1;fill-rule:nonzero;stroke:none"
             d="m 0,0 c -1.651,1.547 -3.818,2.579 -6.293,2.579 -1.857,0 -4.539,-1.083 -4.849,-3.249 -0.361,-2.27 2.217,-3.147 3.868,-3.715 l 2.477,-0.774 c 5.159,-1.599 8.925,-4.332 7.892,-10.626 -0.618,-3.868 -2.167,-7.84 -5.673,-10.471 -3.457,-2.58 -7.688,-3.663 -11.607,-3.663 -4.9,0 -9.441,1.651 -12.999,4.436 l 5.622,8.151 c 2.218,-2.218 4.9,-4.024 8.356,-4.024 2.374,0 5.107,1.186 5.521,3.92 0.463,2.838 -3.353,3.817 -5.417,4.437 -6.087,1.806 -10.008,3.456 -8.77,10.987 1.239,7.893 7.687,13.051 15.476,13.051 3.921,0 8.511,-1.238 11.658,-3.199 z" /></g><g
		transform="translate(264.0644,312.9169)"
		id="g72"><path
             id="path74"
             style="fill:#2c9a42;fill-opacity:1;fill-rule:nonzero;stroke:none"
             d="m 0,0 2.791,12.589 -20.974,19.36 -34.554,28.481 c 0.022,0.006 -0.01,0.013 -0.087,0.021 l -24.68,5.998 -21.632,-4.656 0.172,-2.439 40.741,-19.2 v 0 l -23.741,4.055 -44.744,-17.314 1.371,-3.036 c 0,0 79.314,-4.629 78.675,-5.219 l -0.779,-14.082 -60.99,-29.311 -0.187,-1.289 -6.305,10.324 -12.241,-6.037 0.303,-4.295 0.007,0.006 c -2.286,-1.984 -3.986,-3.46 -3.986,-3.46 l -1.639,-13.462 20.64,-4.947 0.926,6.04 h 10e-4 l -4.475,-30.878 24.395,-23.675 53.698,-0.577 1.744,2.302 -23.916,15.771 27.35,1.222 1.541,1.334 -26.503,12.21 9.993,9.507 18.092,-15.18 1.407,1.3 -6.29,23.154 11.825,-5.06 1.424,1.053 -8.865,22.833 7.26,17.365 z" /></g><g
		transform="translate(264.0644,312.9169)"
		id="g76"><path
             id="path78"
             style="fill:#198544;fill-opacity:1;fill-rule:nonzero;stroke:none"
             d="M 0,0 -22.232,-9.192 2.791,12.589 Z" /></g><g
		transform="translate(231.9487,235.2087)"
		id="g80"><path
             id="path82"
             style="fill:#198544;fill-opacity:1;fill-rule:nonzero;stroke:none"
             d="m 0,0 1.54,1.334 -26.503,12.21 -16.17,-15.382 z" /></g><g
		transform="translate(242.0133,262.4736)"
		id="g84"><path
             id="path86"
             style="fill:#198544;fill-opacity:1;fill-rule:nonzero;stroke:none"
             d="M 0,0 1.424,1.054 -7.616,24.338 -15.415,6.597 Z" /></g><g
		transform="translate(211.3273,373.347)"
		id="g88"><path
             id="path90"
             style="fill:#198544;fill-opacity:1;fill-rule:nonzero;stroke:none"
             d="m 0,0 34.554,-28.481 -40.04,8.205 -40.741,19.2 -0.172,2.439 C -46.399,1.363 0.668,0.183 0,0" /></g><g
		transform="translate(136.9008,291.1617)"
		id="g92"><path
             id="path94"
             style="fill:#198544;fill-opacity:1;fill-rule:nonzero;stroke:none"
             d="M 0,0 0.302,-4.295 12.24,6.037 Z" /></g><g
		transform="translate(241.8324,303.7251)"
		id="g96"><path
             id="path98"
             style="fill:#2c9a42;fill-opacity:1;fill-rule:nonzero;stroke:none"
             d="m 0,0 -17.833,-42.656 -6.071,-2.743 -1.305,59.149 z" /></g><g
		transform="translate(173.0726,216.4913)"
		id="g100"><path
             id="path102"
             style="fill:#2c9a42;fill-opacity:1;fill-rule:nonzero;stroke:none"
             d="M 0,0 43.907,41.768 -24.396,23.674 Z" /></g><g
		transform="translate(241.9949,330.4289)"
		id="g104"><path
             id="path106"
             style="fill:#2c9a42;fill-opacity:1;fill-rule:nonzero;stroke:none"
             d="M 0,0 -0.163,-26.704 24.86,-4.923 Z" /></g><g
		transform="translate(137.3566,339.812)"
		id="g108"><path
             id="path110"
             style="fill:#2c9a42;fill-opacity:1;fill-rule:nonzero;stroke:none"
             d="m 0,0 1.371,-3.036 c 0,0 79.314,-4.629 78.675,-5.219 -0.64,-0.59 23.419,15.54 23.419,15.54 L 44.744,17.314 c 0,0 -20.767,-14.536 -20.874,-14.952 C 23.764,1.946 0,0 0,0" /></g><g
		transform="translate(149.141,297.1985)"
		id="g112"><path
             id="path114"
             style="fill:#4fa248;fill-opacity:1;fill-rule:nonzero;stroke:none"
             d="M 0,0 C -0.387,-0.3 -15.916,-13.786 -15.916,-13.786 L 4.011,-26.155 6.619,-10.837 Z" /></g><g
		transform="translate(216.6232,317.4752)"
		id="g116"><path
             id="path118"
             style="fill:#4fa248;fill-opacity:1;fill-rule:nonzero;stroke:none"
             d="M 0,0 -67.946,-77.31 0.356,-59.216 Z" /></g><g
		transform="translate(241.9949,330.4289)"
		id="g120"><path
             id="path122"
             style="fill:#4fa248;fill-opacity:1;fill-rule:nonzero;stroke:none"
             d="m 0,0 -0.163,-26.704 -25.209,13.75 z" /></g><g
		transform="translate(245.8811,344.8658)"
		id="g124"><path
             id="path126"
             style="fill:#4fa248;fill-opacity:1;fill-rule:nonzero;stroke:none"
             d="m 0,0 -3.886,-14.437 24.86,-4.923 z" /></g><g
		transform="translate(182.1001,357.1258)"
		id="g128"><path
             id="path130"
             style="fill:#4fa248;fill-opacity:1;fill-rule:nonzero;stroke:none"
             d="m 0,0 -20.464,-15.476 -24.28,-1.838 z" /></g><g
		transform="translate(131.585,269.951)"
		id="g132"><path
             id="path134"
             style="fill:#5eb34d;fill-opacity:1;fill-rule:nonzero;stroke:none"
             d="M 0,0 20.64,-4.947 21.567,1.092 1.64,13.462 Z" /></g><g
		transform="translate(155.6331,288.1642)"
		id="g136"><path
             id="path138"
             style="fill:#5eb34d;fill-opacity:1;fill-rule:nonzero;stroke:none"
             d="M 0,0 -6.956,-47.999 60.99,29.311 Z" /></g><g
		transform="translate(226.7703,215.9143)"
		id="g140"><path
             id="path142"
             style="fill:#5eb34d;fill-opacity:1;fill-rule:nonzero;stroke:none"
             d="M 0,0 1.745,2.302 -29.93,23.187 -53.698,0.577 Z" /></g><g
		transform="translate(236.478,244.3797)"
		id="g144"><path
             id="path146"
             style="fill:#5eb34d;fill-opacity:1;fill-rule:nonzero;stroke:none"
             d="M 0,0 -19.855,73.096 -19.499,13.88 -1.406,-1.3 Z" /></g><g
		transform="translate(245.8811,344.8658)"
		id="g148"><path
             id="path150"
             style="fill:#5eb34d;fill-opacity:1;fill-rule:nonzero;stroke:none"
             d="m 0,0 -3.886,-14.437 -24.593,1.128 23.419,15.54 z" /></g><g
		transform="translate(186.5604,379.3657)"
		id="g152"><path
             id="path154"
             style="fill:#5eb34d;fill-opacity:1;fill-rule:nonzero;stroke:none"
             d="M 0,0 -21.632,-4.655 24.767,-6.019 Z" /></g><g
		transform="translate(216.6232,317.4752)"
		id="g156"><path
             id="path158"
             style="fill:#89c167;fill-opacity:1;fill-rule:nonzero;stroke:none"
             d="M 0,0 25.372,12.954 0.779,14.082 Z" /></g></g></g></g></svg>