<svg xmlns="http://www.w3.org/2000/svg" width="150" height="200" viewBox="0 0 150 200"><path d="M150,50H100V0ZM100,62.5h50V181.25A18.75,18.75,0,0,1,131.25,200H18.75A18.752,18.752,0,0,1,0,181.25V18.75A18.75,18.75,0,0,1,18.75,0H87.5l0,50A12.484,12.484,0,0,0,100,62.5Zm-.391,52.734L84.375,130.508V90.625a9.375,9.375,0,0,0-18.75,0v39.883L50.039,115.234A8,8,0,0,0,43.75,112.5a9.275,9.275,0,0,0-6.629,2.734,9.373,9.373,0,0,0,0,13.258l31.25,31.25a9.373,9.373,0,0,0,13.258,0l31.25-31.25a9.379,9.379,0,0,0-13.27-13.258Z" fill="#fff"/></svg>