<svg id="Layer_1" data-name="Layer 1" xmlns="http://www.w3.org/2000/svg" viewBox="0 0 300 34.22"><defs><style></style></defs><title>logo</title><path class="red" d="M117.43,8.29a65.41,65.41,0,0,0-8.25-.51,17.86,17.86,0,0,0-6.94,1.06l-.07-1.06h-7V29h7.06V15.52q.35-3.32,1.31-4a8.38,8.38,0,0,1,2-.71,17.2,17.2,0,0,1,1.81-.37,11.33,11.33,0,0,1,1.63-.12,18.77,18.77,0,0,1,3.71.35,5,5,0,0,1,2.15.74,6.52,6.52,0,0,1,1.53,4.63V29h7.06V13.51q-.32-3.15-1.45-4.31Q121.46,8.81,117.43,8.29Zm-27,1q-.49-.42-4.59-1a61,61,0,0,0-8.08-.55,66.43,66.43,0,0,0-8.36.49q-3.88.49-4.38.92t-1,3.48A42.9,42.9,0,0,0,63.61,17h6.49v2H63.56A38.28,38.28,0,0,0,64,25q.44,2.67,1.32,3.12a6.08,6.08,0,0,0,1.59.39,19.46,19.46,0,0,0,2.86.18q.92,0,4,.14t4.39.14q8.72,0,10.06-.67l2.15-.92q1.2-.67,1.2-1.59V22q0,2.54-4.38,3.85A33,33,0,0,1,78,26.91a14.48,14.48,0,0,1-3.19-.37,8.78,8.78,0,0,1-2.24-.72A3.32,3.32,0,0,1,71.2,23.7a16.34,16.34,0,0,1-.48-4.38H91.54Q91.54,10.32,90.41,9.3Zm-5.93,7.62H70.68q0-4.52,1.45-5.51a8,8,0,0,1,2.15-.71q1-.18,1.91-.28A16,16,0,0,1,78,10.32a12.18,12.18,0,0,1,3.42.49,5.33,5.33,0,0,1,2,.71A3.27,3.27,0,0,1,84.48,14ZM58.36,8.65A9,9,0,0,0,56.21,8,18.6,18.6,0,0,0,53,7.78H47.55l-1.7,0q-1.41,0-2.26.14-4,.35-4.84,1.31l.07-1.48H31.69V34.22h7.06V27.72q.6.46,4,.88l2.15.25q1.27.11,3.21.11,2.79,0,5.47-.25,4.27-.39,5.08-1.13.64-.6,1-3.41a42.84,42.84,0,0,0,.41-6.1,39.58,39.58,0,0,0-.44-6.31Q59.25,9.05,58.36,8.65Zm-6.77,16-1,.71a4,4,0,0,1-1.52.6q-.67.11-1.48.18t-1.76.07l-.9,0A9.71,9.71,0,0,1,43.62,26a16,16,0,0,1-4.87-1.24V12.27a8.73,8.73,0,0,1,2.94-1.54,13.25,13.25,0,0,1,3.89-.51,12.33,12.33,0,0,1,5.59,1q.85.5,1.36,2.65A20.15,20.15,0,0,1,53,18.49Q53,23.66,51.59,24.65Zm155-13.23a8,8,0,0,1,2.15-.71q1-.18,1.91-.28a16,16,0,0,1,1.76-.11,12.18,12.18,0,0,1,3.42.49,5.32,5.32,0,0,1,2,.71q1.3.86,1.43,5.48h7a39.23,39.23,0,0,0-.36-4.4q-.39-2.66-1.06-3.3-.49-.42-4.59-1a61,61,0,0,0-8.08-.55,66.43,66.43,0,0,0-8.36.49q-3.88.49-4.38.92t-1,3.48A42.61,42.61,0,0,0,198,17h7.11Q205.24,12.32,206.55,11.42ZM20.75,23.17q-.49,2.22-1.34,2.75a8.42,8.42,0,0,1-2,.65,13.15,13.15,0,0,1-3,.34,15,15,0,0,1-3.23-.37A7.51,7.51,0,0,1,9,25.82Q8.11,25.32,7.62,23a23.51,23.51,0,0,1-.47-4H0a38.27,38.27,0,0,0,.44,6q.44,2.67,1.32,3.12a6.08,6.08,0,0,0,1.59.39,19.46,19.46,0,0,0,2.86.18q.92,0,4,.14t4.39.14q1.48,0,4.09-.11t3.74-.11a18.22,18.22,0,0,0,2.65-.18,5,5,0,0,0,1.48-.35q.81-.39,1.34-3.28A37.56,37.56,0,0,0,28.3,19H21.22A22.5,22.5,0,0,1,20.75,23.17ZM8.57,11.42a8,8,0,0,1,2.15-.71q1-.18,1.91-.28a16,16,0,0,1,1.76-.11,12.18,12.18,0,0,1,3.42.49,5.33,5.33,0,0,1,2,.71q1.3.86,1.43,5.48h7a39.18,39.18,0,0,0-.36-4.4q-.39-2.66-1.06-3.3-.49-.42-4.59-1a61,61,0,0,0-8.08-.55,66.44,66.44,0,0,0-8.36.49q-3.88.49-4.38.92t-1,3.48A42.93,42.93,0,0,0,.05,17H7.14Q7.26,12.32,8.57,11.42ZM292.94,2.49V29H300V2.49ZM147.4,21,132.7,5.09l6-5.09h-9.56V30.09h10v0h8.69A9.75,9.75,0,0,1,147.4,21Zm71.32,2.18q-.49,2.22-1.34,2.75a8.41,8.41,0,0,1-2,.65,13.15,13.15,0,0,1-3,.34,15,15,0,0,1-3.23-.37,7.51,7.51,0,0,1-2.21-.72q-.85-.49-1.34-2.84a23.53,23.53,0,0,1-.47-4H198a38.2,38.2,0,0,0,.44,6q.44,2.67,1.32,3.12a6.08,6.08,0,0,0,1.59.39,19.46,19.46,0,0,0,2.86.18q.92,0,4,.14t4.39.14q1.48,0,4.09-.11t3.74-.11a18.22,18.22,0,0,0,2.65-.18,5,5,0,0,0,1.48-.35q.81-.39,1.34-3.28a37.53,37.53,0,0,0,.42-5.93H219.2A22.48,22.48,0,0,1,218.72,23.17ZM288.18,9.3q-.49-.42-4.59-1a61,61,0,0,0-8.08-.55,66.43,66.43,0,0,0-8.36.49q-3.88.49-4.38.92t-1,3.48a42.59,42.59,0,0,0-.37,4.33h6.91v2h-6.94a38.24,38.24,0,0,0,.44,6q.44,2.67,1.32,3.12a6.08,6.08,0,0,0,1.59.39,19.46,19.46,0,0,0,2.86.18q.92,0,4,.14t4.39.14q8.72,0,10.06-.67l2.15-.92q1.2-.67,1.2-1.59V22q0,2.54-4.38,3.85a33,33,0,0,1-9.21,1.09,14.48,14.48,0,0,1-3.19-.37,8.77,8.77,0,0,1-2.24-.72A3.32,3.32,0,0,1,269,23.7a16.33,16.33,0,0,1-.48-4.38h20.82Q289.31,10.32,288.18,9.3Zm-5.93,7.62h-13.8q0-4.52,1.45-5.51a8,8,0,0,1,2.15-.71q1-.18,1.91-.28a16,16,0,0,1,1.76-.11,12.18,12.18,0,0,1,3.42.49,5.33,5.33,0,0,1,2,.71A3.27,3.27,0,0,1,282.25,14Zm-31.8,7.83a3,3,0,0,1-1.31,1.16,8.41,8.41,0,0,1-2,.65,13.09,13.09,0,0,1-3,.34,14.63,14.63,0,0,1-3.23-.37,7.44,7.44,0,0,1-2.17-.72A3.54,3.54,0,0,1,237,24.19a4.84,4.84,0,0,1-.18-.92,11.8,11.8,0,0,1-.07-1.38V10.61h21.07l0-2.86-21.1,0V2.49h-7.06V5.38a2.39,2.39,0,0,1-1.09,1.76,3.76,3.76,0,0,1-2.08.67h-.64l0,2.79h3.85V24.36a4.08,4.08,0,0,0,1.8,3.75,5.46,5.46,0,0,0,1.55.39,19.75,19.75,0,0,0,2.89.18q1.41,0,4.2.14t4.16.14q1.48,0,4.06-.11t3.74-.11a21.07,21.07,0,0,0,2.42-.16,5.39,5.39,0,0,0,1.71-.37,2.6,2.6,0,0,0,1.31-2,15.41,15.41,0,0,0,.28-2.06q.11-1.29.11-2.88h-7.06A8.76,8.76,0,0,1,250.45,24.76ZM188.53,8.29a65.41,65.41,0,0,0-8.25-.51,17.86,17.86,0,0,0-6.94,1.06l-.07-6.35h-7V29h7.06V14.74q.25-2.47,1.31-3.22a8.38,8.38,0,0,1,2-.71,17.17,17.17,0,0,1,1.81-.37,11.33,11.33,0,0,1,1.63-.12,18.78,18.78,0,0,1,3.71.35,5,5,0,0,1,2.15.74,5.44,5.44,0,0,1,1.53,3.85V29h7.06V13.51q-.32-3.15-1.45-4.31Q192.57,8.81,188.53,8.29ZM152,21.59c-2.22,1.8-2.33,5.34-.25,7.9a6.79,6.79,0,0,0,.55.57h6.92V22.37C157.07,20.33,154,19.93,152,21.59ZM141.28,2.16,138,4.81l1,1,3.07-2.65,2,2.44-3,2.44,9.51,9.64a9,9,0,0,1,8.52.35V16.6h0V0H139.42Z"/></svg>