<svg width="0" height="0" class="hidden">
  <symbol version="1.1" xmlns="http://www.w3.org/2000/svg" xmlns:xlink="http://www.w3.org/1999/xlink" viewBox="0 0 75 61" id="bg-oh" preserveAspectRatio="none">
    <title>03_UI Comps/Brand Mark &amp;amp; Text/Light/oh-brand-mark-light</title>
    <g id="03_UI-Comps/Brand-Mark-&amp;amp;-Text/Light/oh-brand-mark-light" stroke="none" stroke-width="1" fill="none" fill-rule="evenodd">
      <g id="Group" transform="translate(0, 4)">
        <path d="M38.9945441,39.1865384 L54.9398418,39.187016 C53.7372758,42.1722749 52.0253858,44.6390005 49.8040227,46.587193 C46.7519603,49.262032 42.7927193,51.0895654 37.9270848,52.0705832 C38.4538666,50.926636 38.685147,49.5787499 38.685147,47.8329515 L38.685147,44.4780284 L38.6865434,39.4214387 C38.7910961,39.3448155 38.893763,39.2665154 38.9945441,39.1865384 Z M18.5685921,5.09076489 L18.5676654,13.2998785 C17.9743269,13.7179523 17.4390423,14.1879805 16.961836,14.7099753 C14.5636926,17.3316414 13.3646209,21.2392316 13.3646209,26.4296322 C13.3646209,31.6200329 14.5636926,35.5213958 16.961836,38.1321643 C17.4390423,38.6519906 17.9743269,39.1200352 18.5676654,39.5363226 L18.5685921,41.9809071 C18.5670449,42.0353954 18.5654977,42.0914405 18.5654977,42.1474856 L18.5639505,44.3098931 L18.5639505,49.2045001 C18.5639505,50.2196758 18.7666409,51.184236 19.1600492,52.0659623 C14.2957794,51.0810894 10.331161,49.2494087 7.26714801,46.5700681 C2.4228984,42.3339913 0,35.6241452 0,26.4436435 C0,17.2631418 2.4228984,10.5610798 7.26714801,6.33745741 C10.3689806,3.63202328 14.3937884,1.7927505 19.3415717,0.819639075 C18.8042353,1.97180789 18.5685921,3.32857722 18.5685921,5.09076489 Z M49.8210418,6.33745741 C54.3024664,10.2547476 56.7063592,16.3040009 57.0314859,24.4852173 L43.6470272,24.4855175 C43.3790059,20.2527403 42.2057889,16.9935403 40.1263538,14.7099753 C39.6950686,14.2360714 39.2158126,13.8049999 38.6885767,13.4167517 L38.6897886,3.72077312 C38.6897886,2.716037 38.4915888,1.7612802 38.1067662,0.887385521 C42.8937675,1.87886351 46.7991667,3.69501091 49.8210418,6.33745741 Z" id="Combined-Shape" fill="#503CD7"></path>
        <path d="M68.0036101,40.4770297 C70.2965446,40.4770297 72.0355854,40.9767654 73.2222795,41.9762366 C74.4074265,42.9757079 75,44.5620961 75,46.7354012 C75,48.9071496 74.4058793,50.4966514 73.217638,51.5007931 C72.0340382,52.5002644 70.2965446,53 68.0036101,53 C65.7106756,53 63.9700877,52.4987076 62.7818463,51.4976795 C61.5920578,50.4950946 60.9979371,48.9071496 60.9979371,46.7354012 C60.9979371,44.5620961 61.5920578,42.9757079 62.7818463,41.9762366 C63.9700877,40.9767654 65.7106756,40.4770297 68.0036101,40.4770297 Z M25.4164518,0 L32.137442,0.00778404418 C33.093605,0.00778404418 33.9089737,0.372077312 34.5835482,1.10066385 C35.2581227,1.83080719 35.59541,2.70417695 35.59541,3.71921631 L35.5923156,25.6157326 C35.8460547,26.5669428 36.5794224,27.3204383 37.5185663,27.599107 L59.1343476,27.599107 C60.0456421,27.33912 60.7294997,26.6587945 60.9584838,25.7122547 L60.9832388,25.5736987 L60.984786,3.71921631 C60.984786,2.70417695 61.3916968,1.83080719 62.0786488,1.10066385 C62.7656008,0.372077312 63.6119134,0.00778404418 64.6175864,0.00778404418 L71.4747292,0.00778404418 C72.4324394,0.00778404418 73.2478081,0.372077312 73.9223827,1.10066385 C74.5969572,1.83080719 74.9930376,2.70417695 74.9930376,3.71921631 L74.9930376,33.2254142 C74.9914905,34.7915639 73.7135121,36.0728175 72.1539453,36.0743743 L37.6841155,36.0728175 C36.5917999,36.3468159 35.7640536,37.2622195 35.5923156,38.3940195 L35.5907684,44.4780284 L35.5907684,47.8329515 C35.5907684,50.2273235 35.0647241,51.1006932 34.377772,51.8292798 C33.69082,52.5594231 32.8429603,52.9237164 31.8372873,52.9237164 L25.1178442,52.9174891 C24.1601341,52.9174891 23.3447653,52.5516391 22.6701908,51.8230525 C21.9956163,51.0929092 21.658329,50.2210962 21.658329,49.2045001 L21.658329,44.3114499 L21.6598762,42.1474856 L21.6629706,5.09076489 C21.6629706,2.6963929 22.1905621,1.82302315 22.8775142,1.09443661 C23.5644662,0.364293268 24.4107788,0 25.4164518,0 Z" id="Combined-Shape" fill="#33DDE0"></path>
      </g>
    </g>
  </symbol>
</svg>