<svg xmlns="http://www.w3.org/2000/svg" viewBox="0 0 1585.806 150.551">
  <path id="Combined_Shape" data-name="Combined Shape" d="M21.736,130.187a9,9,0,0,0,7.729,11.735l92.788,8.63c73.859-38.321,182.8-25.639,372.4-7.154s146.04-19.65,377.827,1.884c107.164,9.956,220.259-42.8,406.848-11.826,115.847,19.233,207.9-20.643,228.138-11.735,33.341,14.672,118.984-116.073,95.666-111.889-89.437,16.046-141.315-22.812-242.208,1.386-75.574,18.125-197.147-30.012-304.011-2.527C849.539,62.025,703.856-10.361,550.648,24.855,337.723,73.8,251.7-7.045,122.653,33.068l-70.4,16.879a9,9,0,0,0-6.464,5.979Z" transform="translate(-21.293 0)" fill="#503cd7"/>
</svg>
