<svg xmlns="http://www.w3.org/2000/svg" xmlns:xlink="http://www.w3.org/1999/xlink" width="109" height="101" viewBox="0 0 109 101">
	<defs>
		<filter id="Shape" x="0" y="3" width="106" height="98" filterUnits="userSpaceOnUse">
			<feOffset dx="-1" dy="1" input="SourceAlpha"/>
			<feGaussianBlur result="blur"/>
			<feFlood flood-color="#1ec5c8"/>
			<feComposite operator="in" in2="blur"/>
		</filter>
		<filter id="Shape-2" x="1" y="0" width="108" height="100" filterUnits="userSpaceOnUse">
			<feOffset dx="3" dy="-3" input="SourceAlpha"/>
			<feGaussianBlur result="blur-2"/>
			<feFlood flood-color="#503cd7"/>
			<feComposite operator="in" in2="blur-2"/>
			<feComposite in="SourceGraphic"/>
		</filter>
	</defs>
	<g id="Shape-3" data-name="Shape" transform="translate(-569 -311)">
		<g transform="matrix(1, 0, 0, 1, 569, 311)" filter="url(#Shape)">
			<path id="Shape-4" data-name="Shape" d="M69.4,97h0L51.322,82.252A186.859,186.859,0,0,0,66.791,55.661a68.354,68.354,0,0,0,6.568-29.568V0H105V25.527a82.269,82.269,0,0,1-4.167,24.746A104.958,104.958,0,0,1,88.685,75.658a92.009,92.009,0,0,1-8.811,11.469A90.633,90.633,0,0,1,69.4,97ZM18.081,97h0L0,82.252A186.769,186.769,0,0,0,15.467,55.661a68.341,68.341,0,0,0,6.568-29.568V0H53.677V25.527A82.24,82.24,0,0,1,49.51,50.273,104.922,104.922,0,0,1,37.362,75.658a91.96,91.96,0,0,1-8.81,11.469A90.665,90.665,0,0,1,18.082,97Z" transform="translate(1 3)" fill="#fff"/>
		</g>
		<g transform="matrix(1, 0, 0, 1, 569, 311)" filter="url(#Shape-2)">
			<path id="Shape-5" data-name="Shape" d="M69.4,97h0L51.322,82.252A186.859,186.859,0,0,0,66.791,55.661a68.354,68.354,0,0,0,6.568-29.568V0H105V25.527a82.269,82.269,0,0,1-4.167,24.746A104.958,104.958,0,0,1,88.685,75.658a92.009,92.009,0,0,1-8.811,11.469A90.633,90.633,0,0,1,69.4,97ZM18.081,97h0L0,82.252A186.769,186.769,0,0,0,15.467,55.661a68.341,68.341,0,0,0,6.568-29.568V0H53.677V25.527A82.24,82.24,0,0,1,49.51,50.273,104.922,104.922,0,0,1,37.362,75.658a91.96,91.96,0,0,1-8.81,11.469A90.665,90.665,0,0,1,18.082,97Z" transform="translate(1 3)" fill="#fff"/>
		</g>
	</g>
</svg>
