<?xml version="1.0" encoding="UTF-8"?>
<svg id="uuid-a0a77ec3-fcb2-449c-8948-f97bfaddad8e" data-name="uuid-ee4d1a70-fd42-43fd-a5e2-210801c3c92d" xmlns="http://www.w3.org/2000/svg" viewBox="0 0 1585.82 150.56" preserveAspectRatio="none">
  <path id="uuid-d8ed05bf-a367-49e0-b728-3f1a29f09686" data-name="uuid-aac778c4-0c17-4afd-9998-ff8c0f8085ca" d="M.44,130.19c-1.53,4.73,1.06,9.8,5.79,11.34.63.2,1.28.34,1.94.4l92.79,8.63c73.86-38.32,182.8-25.64,372.4-7.15s146.04-19.65,377.83,1.88c107.16,9.96,220.26-42.8,406.85-11.83,115.85,19.23,207.9-20.64,228.14-11.74,33.34,14.67,118.98-116.07,95.67-111.89-89.44,16.05-141.31-22.81-242.21,1.39-75.57,18.12-197.15-30.01-304.01-2.53-207.37,53.33-353.06-19.05-506.27,16.16C316.43,73.8,230.41-7.05,101.36,33.06L30.96,49.94c-3.05.73-5.5,3-6.46,5.98L.44,130.19Z" style="fill: #503cd7; stroke-width: 0px;"/>
</svg>