<?xml version="1.0" encoding="UTF-8"?>
<svg width="350px" height="350px" viewBox="0 0 350 350" version="1.1" xmlns="http://www.w3.org/2000/svg" xmlns:xlink="http://www.w3.org/1999/xlink">
    <title>03_UI Comps/Favicon/oh-brand-mark-light-favicon</title>
    <g id="03_UI-Comps/Favicon/oh-brand-mark-light-favicon" stroke="none" stroke-width="1" fill="none" fill-rule="evenodd">
        <rect id="Rectangle-Copy-29" fill="#E9FBFC" x="0" y="0" width="350" height="350" rx="135.68"></rect>
        <g id="oh-brand-text-horizontal-copy-4" transform="translate(49.7337, 75.0373)">
            <g id="Group" transform="translate(1.2663, 11.1431)">
                <path d="M127.900832,129.12387 L180.202486,129.124916 C176.258079,138.96137 170.643145,147.089272 163.357194,153.50862 C153.345696,162.32308 140.358214,168.345189 124.397327,171.577551 C126.128592,167.807969 126.887282,163.366387 126.887282,157.613496 L126.887282,146.558749 L126.892803,129.896179 C127.234971,129.644244 127.570981,129.386808 127.900832,129.12387 Z M60.9049819,16.7744876 L60.9039159,43.8227932 C58.956979,45.2007303 57.2005878,46.7499773 55.6348221,48.4705744 C47.7689118,57.1091791 43.8359567,69.985009 43.8359567,87.0878046 C43.8359567,104.1906 47.7689118,117.045911 55.6348221,125.648607 C57.2005878,127.362056 58.956979,128.904765 60.9039159,130.276814 L60.9049819,138.33053 C60.8999072,138.510073 60.8948324,138.694747 60.8948324,138.87942 L60.8897576,146.00473 L60.8897576,162.132861 C60.8897576,165.477172 61.5542737,168.654779 62.8440635,171.559592 C46.8885876,168.315648 33.8856017,162.280306 23.8362455,153.452192 C7.94710676,139.493971 0,117.384479 0,87.1339729 C0,56.8834673 7.94710676,34.7996235 23.8362455,20.8824416 C34.0115416,11.9666881 47.214962,5.90572844 63.4465066,2.6995627 C61.6786437,6.49292024 60.9049819,10.9651107 60.9049819,16.7744876 Z M163.413017,20.8824416 C178.112129,33.7902683 185.9969,53.7231256 187.063282,80.6810134 L143.162216,80.6812592 C142.283042,66.7341683 138.434902,55.9950134 131.61444,48.4705744 C130.199621,46.9087969 128.627412,45.4881965 126.897783,44.2087431 L126.902506,12.2602524 C126.902506,8.95227071 126.253474,5.80870584 124.993287,2.93106984 C140.694549,6.19240703 153.502424,12.1763806 163.413017,20.8824416 Z" id="Combined-Shape" fill="#503CD7"></path>
                <path d="M223.051841,133.375131 C230.572666,133.375131 236.27672,135.021801 240.169077,138.31514 C244.056359,141.60848 246,146.835759 246,153.996978 C246,161.153067 244.051284,166.390605 240.153853,169.699335 C236.271645,172.992674 230.572666,174.639344 223.051841,174.639344 C215.531016,174.639344 209.821888,172.987545 205.924456,169.689075 C202.021949,166.385476 200.073234,161.153067 200.073234,153.996978 C200.073234,146.835759 202.021949,141.60848 205.924456,138.31514 C209.821888,135.021801 215.531016,133.375131 223.051841,133.375131 Z M83.3659618,0 L105.41081,0.0256490636 C108.547024,0.0256490636 111.221434,1.22602524 113.434038,3.62677759 C115.646643,6.03265976 116.752945,8.9104847 116.752945,12.2551226 L116.742795,84.4059385 C117.575059,87.5402541 119.980505,90.0230834 123.060897,90.9413199 L193.96066,90.9413199 C196.949706,90.0846412 199.192759,87.842913 199.943827,84.7239869 L200.025023,84.2674336 L200.030098,12.2551226 C200.030098,8.9104847 201.364765,6.03265976 203.617968,3.62677759 C205.871171,1.22602524 208.647076,0.0256490636 211.945683,0.0256490636 L234.437112,0.0256490636 C237.578401,0.0256490636 240.252811,1.22602524 242.465415,3.62677759 C244.67802,6.03265976 245.977163,8.9104847 245.977163,12.2551226 L245.977163,109.480463 C245.972089,114.641055 241.78032,118.862891 236.664941,118.86802 L123.603899,118.862891 C120.021104,119.765738 117.306096,122.782067 116.742795,126.511441 L116.73772,146.558749 L116.73772,157.613496 C116.73772,165.503148 115.012295,168.380973 112.759092,170.781725 C110.50589,173.187607 107.72491,174.387983 104.426302,174.387983 L82.3865291,174.367464 C79.2452398,174.367464 76.5708303,173.161958 74.3582259,170.761206 C72.1456215,168.355324 71.0393192,165.482629 71.0393192,162.132861 L71.0393192,146.009859 L71.044394,138.87942 L71.0545436,138.87942 L71.0545436,16.7744876 C71.0545436,8.88483563 72.7850438,6.0070107 75.0382465,3.60625834 C77.2914492,1.20037618 80.0673543,0 83.3659618,0 Z" id="Combined-Shape" fill="#33DDE0"></path>
            </g>
        </g>
    </g>
</svg>