<?xml version="1.0" encoding="UTF-8"?>
<svg width="284px" height="36px" viewBox="0 0 284 36" version="1.1" xmlns="http://www.w3.org/2000/svg" xmlns:xlink="http://www.w3.org/1999/xlink">
    <title>03_UI Comps/Brand Mark &amp; Text/White/oh-brand-text-white-horizontal</title>
    <g id="03_UI-Comps/Brand-Mark-&amp;-Text/White/oh-brand-text-white-horizontal" stroke="none" stroke-width="1" fill="none" fill-rule="evenodd">
        <g id="cleaned-copy" transform="translate(1, 1)" fill="#FFFFFF">
            <path d="M188.2704,26.5384 C186.9974,27.8924 184.9394,28.5704 182.0964,28.5704 C179.2534,28.5704 177.1924,27.8924 175.9124,26.5384 C174.6334,25.1844 173.9934,23.1604 173.9934,20.4684 C173.9934,17.7764 174.6334,15.7504 175.9124,14.3904 C177.1924,13.0304 179.2534,12.3504 182.0964,12.3504 C184.9394,12.3504 186.9974,13.0304 188.2704,14.3904 C189.5434,15.7504 190.1804,17.7764 190.1804,20.4684 C190.1804,23.1604 189.5434,25.1844 188.2704,26.5384 M193.4424,10.1634 C190.8644,8.0024 187.0824,6.9224 182.0964,6.9224 C177.1104,6.9224 173.3254,8.0024 170.7404,10.1634 C168.1564,12.3244 166.8644,15.7534 166.8644,20.4494 C166.8644,25.1464 168.1564,28.5774 170.7404,30.7444 C173.3254,32.9114 177.1104,33.9954 182.0964,33.9954 C187.0824,33.9954 190.8614,32.9154 193.4324,30.7534 C196.0174,28.5804 197.3094,25.1464 197.3094,20.4494 C197.3094,15.7534 196.0204,12.3244 193.4424,10.1634 M158.7585,26.0002 C160.2405,26.0002 161.3645,26.3212 162.1315,26.9632 C162.8975,27.6052 163.2805,28.6242 163.2805,30.0202 C163.2805,31.4152 162.8965,32.4362 162.1285,33.0812 C161.3635,33.7232 160.2405,34.0442 158.7585,34.0442 C157.2765,34.0442 156.1515,33.7222 155.3835,33.0792 C154.6145,32.4352 154.2305,31.4152 154.2305,30.0202 C154.2305,28.6242 154.6145,27.6052 155.3835,26.9632 C156.1515,26.3212 157.2765,26.0002 158.7585,26.0002 Z M131.2326,0.0006 L135.5766,0.0046 C136.1946,0.0046 136.7226,0.2386 137.1586,0.7076 C137.5946,1.1756 137.8126,1.7366 137.8126,2.3896 L137.8096,16.4546 C137.9736,17.0656 138.4486,17.5496 139.0546,17.7286 L153.0256,17.7286 C153.6156,17.5616 154.0576,17.1236 154.2046,16.5166 L154.2216,16.4266 L154.2226,2.3896 C154.2226,1.7366 154.4846,1.1756 154.9286,0.7076 C155.3726,0.2386 155.9196,0.0046 156.5696,0.0046 L161.0026,0.0046 C161.6206,0.0046 162.1476,0.2386 162.5836,0.7076 C163.0196,1.1756 163.2756,1.7366 163.2756,2.3896 L163.2756,21.3426 C163.2746,22.3476 162.4496,23.1706 161.4406,23.1726 L139.1616,23.1706 C138.4566,23.3476 137.9216,23.9346 137.8096,24.6616 L137.8096,28.5696 L137.8086,30.7256 C137.8086,32.2636 137.4686,32.8236 137.0246,33.2926 C136.5806,33.7616 136.0336,33.9956 135.3836,33.9956 L131.0396,33.9906 C130.4216,33.9906 129.8936,33.7566 129.4576,33.2876 C129.0216,32.8196 128.8036,32.2586 128.8036,31.6066 L128.8046,28.4626 L128.8046,27.0736 L128.8076,3.2706 C128.8076,1.7316 129.1476,1.1716 129.5916,0.7026 C130.0356,0.2346 130.5826,0.0006 131.2326,0.0006 Z M282.2747,29.0934 C281.9307,28.7424 281.5147,28.5674 281.0267,28.5674 L264.4657,28.5674 L264.4277,8.7454 C264.4277,8.2314 264.2557,7.7994 263.9117,7.4484 C263.5677,7.0974 263.1517,6.9224 262.6637,6.9224 L259.3587,6.9224 C258.8707,6.9224 258.4517,7.0974 258.1017,7.4484 C257.7517,7.7994 257.5767,8.2314 257.5767,8.7454 L257.5767,32.2654 C257.5767,32.7544 257.7897,33.1654 258.1397,33.4974 C258.4897,33.8294 258.9087,33.9954 259.3967,33.9954 L281.0267,33.9954 C281.5147,33.9954 281.9307,33.8234 282.2747,33.4784 C282.6187,33.1334 282.7907,32.7174 282.7907,32.2284 L282.7907,30.3534 C282.7907,29.8644 282.6187,29.4444 282.2747,29.0934 M224.3542,6.9237 L200.4202,6.9237 C199.9042,6.9237 199.4772,7.0927 199.1372,7.4317 C198.7982,7.7697 198.6282,8.1957 198.6282,8.7097 L198.6282,10.5827 C198.6282,11.0967 198.7982,11.5197 199.1372,11.8527 C199.4772,12.1847 199.9042,12.3507 200.4202,12.3507 L208.9422,12.3507 L208.7952,32.2657 C208.7952,32.7547 208.9682,33.1647 209.3132,33.4967 C209.6592,33.8297 210.0772,33.9957 210.5682,33.9957 L214.0222,33.9957 C214.5122,33.9957 214.8192,33.8297 215.1652,33.4967 C215.5112,33.1647 215.6842,32.7547 215.6842,32.2657 L215.6832,12.3507 L224.3542,12.3507 C224.8702,12.3507 225.2972,12.1847 225.6362,11.8527 C225.9762,11.5197 225.9982,11.2447 225.9982,10.7307 L225.9982,8.8577 C225.9982,8.3437 225.9762,7.7697 225.6362,7.4317 C225.2972,7.0927 224.8702,6.9237 224.3542,6.9237 M252.3008,28.5669 L235.8178,28.5669 L235.8118,23.1639 L243.5558,23.1729 C244.0438,23.1729 244.4598,23.0009 244.8038,22.6559 C245.1478,22.3109 245.3188,22.1739 245.3188,21.6849 L245.3188,19.5049 C245.3188,19.0159 245.1288,18.6009 244.7848,18.2569 C244.4418,17.9119 244.0258,17.7389 243.5378,17.7389 L235.8148,17.7309 L235.8148,12.3549 L243.5268,12.3509 C244.0148,12.3509 244.4308,12.1779 244.7748,11.8329 C245.1188,11.4889 245.3188,11.0699 245.3188,10.5819 L245.3188,8.7069 C245.3188,8.2179 245.1188,7.7989 244.7748,7.4489 C244.4308,7.0979 244.0148,6.9219 243.5268,6.9219 L230.7078,6.9219 C230.2198,6.9219 229.8008,7.1029 229.4508,7.4409 C229.1008,7.7789 228.9258,8.1929 228.9258,8.6819 L228.9258,32.1939 C228.9258,32.7079 229.1008,33.1369 229.4508,33.4819 C229.8008,33.8269 230.2198,33.9989 230.7078,33.9989 L252.2448,33.9989 C252.7318,33.9989 253.1508,33.8269 253.5018,33.4819 C253.8518,33.1369 254.0268,32.7209 254.0268,32.2319 L254.0268,30.3159 C254.0268,29.8269 253.8578,29.4129 253.5198,29.0749 C253.1828,28.7359 252.7758,28.5669 252.3008,28.5669" id="Combined-Shape"></path>
            <path d="M91.2919,28.5669 L74.8089,28.5669 L74.8029,23.1639 L82.5469,23.1729 C83.0349,23.1729 83.4509,23.0009 83.7949,22.6559 C84.1389,22.3109 84.3099,22.1739 84.3099,21.6849 L84.3099,19.5049 C84.3099,19.0159 84.1199,18.6009 83.7759,18.2569 C83.4329,17.9119 83.0169,17.7389 82.5289,17.7389 L74.8059,17.7309 L74.8059,12.3549 L82.5179,12.3509 C83.0059,12.3509 83.4219,12.1779 83.7659,11.8329 C84.1099,11.4889 84.3099,11.0699 84.3099,10.5819 L84.3099,8.7069 C84.3099,8.2179 84.1099,7.7989 83.7659,7.4489 C83.4219,7.0979 83.0059,6.9219 82.5179,6.9219 L69.6989,6.9219 C69.2109,6.9219 68.7919,7.1029 68.4419,7.4409 C68.0919,7.7789 67.9169,8.1929 67.9169,8.6819 L67.9169,32.1939 C67.9169,32.7079 68.0919,33.1369 68.4419,33.4819 C68.7919,33.8269 69.2109,33.9989 69.6989,33.9989 L91.2359,33.9989 C91.7229,33.9989 92.1419,33.8269 92.4929,33.4819 C92.8429,33.1369 93.0179,32.7209 93.0179,32.2319 L93.0179,30.3159 C93.0179,29.8269 92.8489,29.4129 92.5109,29.0749 C92.1739,28.7359 91.7669,28.5669 91.2919,28.5669 M25.935,24.494 C24.392,26.172 21.899,27.01 18.455,27.01 C15.011,27.01 12.513,26.172 10.963,24.494 C9.413,22.817 8.638,20.311 8.638,16.977 C8.638,13.643 9.413,11.133 10.963,9.449 C12.513,7.764 15.011,6.922 18.455,6.922 C21.899,6.922 24.392,7.764 25.935,9.449 C27.478,11.133 28.249,13.643 28.249,16.977 C28.249,20.311 27.478,22.817 25.935,24.494 M32.201,4.071 C29.078,1.357 24.495,0 18.455,0 C12.414,0 7.828,1.357 4.697,4.071 C1.566,6.784 0,11.089 0,16.986 C0,22.883 1.566,27.193 4.697,29.914 C7.828,32.635 12.414,33.995 18.455,33.995 C24.495,33.995 29.074,32.639 32.19,29.925 C35.321,27.196 36.886,22.883 36.886,16.986 C36.886,11.089 35.324,6.784 32.201,4.071 M57.3651,17.099 C56.8521,17.53 56.0961,17.738 55.1011,17.738 L47.4331,17.738 C47.4171,17.738 47.4331,12.346 47.4331,12.346 L55.1011,12.346 C56.0961,12.346 56.8511,12.561 57.3651,12.992 C57.8791,13.423 58.1371,14.107 58.1371,15.044 C58.1371,15.98 57.8811,16.666 57.3651,17.099 M56.6631,6.922 L42.2921,6.922 C41.8021,6.922 41.3881,7.209 41.0491,7.56 C40.7101,7.911 40.5411,8.331 40.5411,8.82 L40.5411,21.415 C40.5411,22.386 41.3281,23.173 42.2991,23.173 L56.6411,23.173 C62.4741,23.163 65.0411,20.44 65.0411,14.726 C65.0411,8.864 59.8621,6.922 56.6631,6.922 M124.0611,14.1366 C124.0611,13.6226 123.8881,13.1966 123.5421,12.8576 C123.1961,12.5196 122.7781,12.3506 122.2871,12.3506 L119.0981,12.3506 C118.6071,12.3506 118.1891,12.5196 117.8431,12.8576 C117.4971,13.1966 117.3241,13.6106 117.3241,14.0986 L117.3291,26.2866 L105.9291,8.8196 C105.6141,8.3306 105.2121,7.9106 104.7211,7.5596 C104.2301,7.2096 103.7651,6.9216 103.3241,6.9216 L97.7751,6.9216 C97.2851,6.9216 96.8691,7.2096 96.5301,7.5596 C96.1901,7.9106 96.0201,8.3306 96.0201,8.8196 L96.0201,32.2276 C96.0201,32.7166 96.1961,33.1336 96.5491,33.4786 C96.9011,33.8226 97.3221,33.9956 97.8131,33.9956 L101.1351,33.9956 C101.6261,33.9956 102.0441,33.8226 102.3901,33.4786 C102.7361,33.1336 102.9091,32.7166 102.9091,32.2276 L102.9091,16.0956 L113.3461,32.2276 C113.6481,32.7166 114.0571,33.1336 114.5731,33.4786 C115.0891,33.8226 115.5921,33.9956 116.0831,33.9956 L122.3251,33.9956 C122.8161,33.9956 123.2351,33.8226 123.5811,33.4786 C123.9271,33.1336 124.1001,32.7166 124.1001,32.2276 L124.0611,14.1366 Z M45.0686,25.951 C43.5866,25.951 42.4616,26.272 41.6936,26.914 C40.9246,27.556 40.5406,28.575 40.5406,29.971 C40.5406,31.366 40.9246,32.386 41.6936,33.03 C42.4616,33.673 43.5866,33.995 45.0686,33.995 C46.5506,33.995 47.6736,33.674 48.4386,33.032 C49.2066,32.387 49.5906,31.366 49.5906,29.971 C49.5906,28.575 49.2076,27.556 48.4416,26.914 C47.6746,26.272 46.5506,25.951 45.0686,25.951" id="Combined-Shape"></path>
        </g>
    </g>
</svg>