<svg width="0" height="0" class="hidden">
  <symbol xmlns="http://www.w3.org/2000/svg" viewBox="0 0 188.726 152.21" id="oh-watermark">
    <path id="Combined_Shape" d="M131.61,151.823a13.824,13.824,0,0,1-6.148-3.324,28.32,28.32,0,0,1-7.932-14.917,13.789,13.789,0,0,1,.688-6.946,16.94,16.94,0,0,1,4.03-5.961c.522-.513,1.094-1.023,1.7-1.517a7.01,7.01,0,0,0,.937,2.931l2.733,5.14a7.037,7.037,0,0,0-.539,1.417c-.627,2.43-.073,5.3,1.647,8.536s3.788,5.3,6.15,6.127a6.937,6.937,0,0,0,1.474.342l.814,1.532c.016.035.034.07.053.106l.719,1.354,1.629,3.064a4.935,4.935,0,0,0,1.324,1.59h0c-.706.211-1.407.386-2.083.522a18.866,18.866,0,0,1-3.732.388A15.227,15.227,0,0,1,131.61,151.823Zm-103.124-.845a27.668,27.668,0,0,1-12.3-6.646A49.968,49.968,0,0,1,5.978,130.622,49.91,49.91,0,0,1,.325,114.5,27.593,27.593,0,0,1,1.7,100.6a33.833,33.833,0,0,1,8.06-11.92c1.042-1.025,2.187-2.047,3.4-3.035a14.02,14.02,0,0,0,1.873,5.862L20.5,101.794a13.969,13.969,0,0,0-1.076,2.832c-1.256,4.857-.147,10.6,3.293,17.07s7.578,10.593,12.3,12.255a13.869,13.869,0,0,0,2.947.684L39.6,137.7l.025.049c.027.053.054.108.082.161l1.438,2.708,3.259,6.129a9.892,9.892,0,0,0,2.648,3.181l0,0h0c-1.412.421-2.813.772-4.165,1.045a37.781,37.781,0,0,1-7.466.776A30.423,30.423,0,0,1,28.486,150.978Zm114.526-1a2.638,2.638,0,0,1-1.5-1.3l-1.629-3.064-.72-1.355h0l-12.335-23.2a3.554,3.554,0,0,1-.57-2.907,2.376,2.376,0,0,1,1.227-1.531l4.216-2.235a2.281,2.281,0,0,1,1.9-.131,2.639,2.639,0,0,1,1.506,1.3l7.286,13.709a2.013,2.013,0,0,0,1.868.6l13.547-7.2a1.812,1.812,0,0,0,.515-1.789l-.031-.1L151.013,107.1a2.654,2.654,0,0,1-.185-2,2.377,2.377,0,0,1,1.227-1.53l4.3-2.285a2.282,2.282,0,0,1,1.9-.132,2.678,2.678,0,0,1,1.543,1.283l9.822,18.472a2.027,2.027,0,0,1-.831,2.73l-21.6,11.485a2,2,0,0,0-.538,2.151l2.024,3.809.058.108,1.059,1.993a3.555,3.555,0,0,1,.571,2.905,2.379,2.379,0,0,1-1.228,1.533l-4.214,2.236a2.263,2.263,0,0,1-1.074.276A2.505,2.505,0,0,1,143.012,149.979ZM51.29,147.29a5.278,5.278,0,0,1-3.012-2.6l-3.257-6.125-1.439-2.711,0,0-24.671-46.4c-1.594-3-1.513-4.444-1.138-5.814a4.754,4.754,0,0,1,2.454-3.062L28.661,76.1a4.561,4.561,0,0,1,3.794-.263,5.285,5.285,0,0,1,3.012,2.6L50.04,105.863a4.018,4.018,0,0,0,3.734,1.2L80.869,92.657A3.619,3.619,0,0,0,81.9,89.078l-.06-.19L67.291,61.525a5.316,5.316,0,0,1-.373-4.008,4.761,4.761,0,0,1,2.455-3.061l8.6-4.57a4.565,4.565,0,0,1,3.8-.263,5.357,5.357,0,0,1,3.085,2.565l19.643,36.943a4.051,4.051,0,0,1-1.661,5.459L59.623,117.563a4,4,0,0,0-1.076,4.3l4.048,7.619.115.216,2.119,3.984c1.594,3,1.516,4.442,1.14,5.812a4.761,4.761,0,0,1-2.456,3.063l-8.427,4.47a4.521,4.521,0,0,1-2.15.554A4.993,4.993,0,0,1,51.29,147.29Zm101.366-2.243a7.044,7.044,0,0,0-.935-2.9l-1.059-1.993-.057-.108-1.684-3.168c.038-.077.077-.16.113-.247l10-5.314a13.666,13.666,0,0,1-.755,6.343,16.758,16.758,0,0,1-4.014,5.951c-.492.486-1.031.969-1.6,1.438h0Zm-82.08-7.618a14.073,14.073,0,0,0-1.869-5.808l-2.119-3.985-.114-.216-3.367-6.337c.077-.159.154-.326.228-.493l19.991-10.627a27.385,27.385,0,0,1-1.51,12.687,33.583,33.583,0,0,1-8.028,11.9c-.985.971-2.065,1.939-3.209,2.877v0Zm97.466-1.02a5.133,5.133,0,0,1-3.169-5.961,6.989,6.989,0,0,1,6.543-3.479,5.141,5.141,0,0,1,3.168,5.964,5.612,5.612,0,0,1-2.768,2.676,6.494,6.494,0,0,1-2.993.88A3.711,3.711,0,0,1,168.043,136.409ZM141.6,120.928a6.878,6.878,0,0,0-1.33-.328l-3.227-6.072a4.945,4.945,0,0,0-1.307-1.579c.672-.2,1.335-.361,1.967-.49a16.879,16.879,0,0,1,7.187,0,13.808,13.808,0,0,1,6.135,3.318,23.7,23.7,0,0,1,4.423,5.639h0l-8.388,4.459A11.081,11.081,0,0,0,141.6,120.928Zm-40.247-.779q-3.239-.693-5.406-4.774t-.932-7.148q1.235-3.064,5.547-5.357t7.539-1.6q3.227.693,5.4,4.774t.939,7.153q-1.227,3.062-5.538,5.352a12.986,12.986,0,0,1-5.986,1.76A7.423,7.423,0,0,1,101.352,120.148Zm25.729-19.634a19.48,19.48,0,0,1-8.73-4.656A34.839,34.839,0,0,1,111.13,86.2a34.813,34.813,0,0,1-3.966-11.381,19.438,19.438,0,0,1,1.029-9.828,24.254,24.254,0,0,1,5.782-8.457c.745-.728,1.563-1.455,2.433-2.158a9.79,9.79,0,0,0,1.312,4.138l3.856,7.25a9.974,9.974,0,0,0-.777,2.007c-.91,3.441-.141,7.5,2.283,12.059s5.358,7.463,8.712,8.621a9.939,9.939,0,0,0,2.1.473l1.149,2.161c.023.049.049.1.075.148l1.014,1.91,2.3,4.322a6.9,6.9,0,0,0,1.874,2.241h0c-1.006.3-2,.556-2.967.754a27.124,27.124,0,0,1-5.44.576A21.65,21.65,0,0,1,127.081,100.514ZM48.463,89.187A13.831,13.831,0,0,0,45.8,88.53L39.346,76.385a9.9,9.9,0,0,0-2.613-3.155c1.338-.392,2.663-.721,3.936-.978a33.7,33.7,0,0,1,14.372-.008A27.578,27.578,0,0,1,67.309,78.88a47.37,47.37,0,0,1,8.85,11.281h0l-16.776,8.92C56.236,93.98,52.561,90.651,48.463,89.187Zm94.865,8.637a3.7,3.7,0,0,1-2.134-1.831l-2.3-4.321-1.014-1.911,0,0-17.4-32.72c-1.124-2.114-1.062-3.136-.789-4.106a3.415,3.415,0,0,1,1.758-2.174l6.017-3.191a3.277,3.277,0,0,1,2.7-.2A3.7,3.7,0,0,1,132.31,49.2l10.278,19.335a2.849,2.849,0,0,0,2.653.836L164.582,59.09a2.571,2.571,0,0,0,.746-2.534l-.043-.134-10.258-19.3a3.724,3.724,0,0,1-.251-2.831,3.416,3.416,0,0,1,1.759-2.173l6.136-3.263a3.271,3.271,0,0,1,2.7-.2,3.757,3.757,0,0,1,2.188,1.8l13.852,26.052a2.876,2.876,0,0,1-1.2,3.866l-30.841,16.4a2.833,2.833,0,0,0-.782,3.044l2.855,5.373.081.153,1.494,2.81c1.124,2.113,1.064,3.136.791,4.1a3.419,3.419,0,0,1-1.759,2.175l-6.016,3.191a3.255,3.255,0,0,1-1.547.4A3.576,3.576,0,0,1,143.329,97.825Zm13.766-7.042a9.813,9.813,0,0,0-1.309-4.1l-1.494-2.81-.081-.152-2.374-4.468c.054-.113.11-.229.163-.35l14.27-7.586a19.3,19.3,0,0,1-1.12,8.977,24.047,24.047,0,0,1-5.757,8.444c-.7.691-1.477,1.379-2.294,2.047l0,0Zm21.971-12.327a5.849,5.849,0,0,1-3.832-3.356q-1.531-2.878-.638-5.051a10.082,10.082,0,0,1,9.341-4.967q2.3.478,3.826,3.356a5.864,5.864,0,0,1,.642,5.056,8.074,8.074,0,0,1-3.961,3.8,9.325,9.325,0,0,1-4.3,1.266A5.3,5.3,0,0,1,179.065,78.455Zm-37.542-21.7a9.82,9.82,0,0,0-1.892-.455l-4.552-8.564a6.891,6.891,0,0,0-1.849-2.221c.956-.283,1.9-.52,2.8-.706a24.15,24.15,0,0,1,10.232-.058,19.424,19.424,0,0,1,8.71,4.649,33.06,33.06,0,0,1,6.259,7.944h0l-11.975,6.368C147.038,60.112,144.436,57.771,141.523,56.751ZM41.61,50.822A13.814,13.814,0,0,1,35.462,47.5a24.986,24.986,0,0,1-5.1-6.854,24.955,24.955,0,0,1-2.827-8.063,13.791,13.791,0,0,1,.688-6.946,16.945,16.945,0,0,1,4.03-5.96c.522-.513,1.094-1.023,1.7-1.517a7,7,0,0,0,.937,2.93L37.62,26.23a7.036,7.036,0,0,0-.539,1.417c-.627,2.43-.073,5.3,1.647,8.536s3.788,5.3,6.15,6.127a6.936,6.936,0,0,0,1.474.342l.814,1.532c.016.035.034.07.053.106l.719,1.354,1.629,3.064A4.938,4.938,0,0,0,50.891,50.3h0c-.706.21-1.407.386-2.083.522a18.856,18.856,0,0,1-3.73.388A15.211,15.211,0,0,1,41.61,50.822Zm59.563-1.429c-2.419-.563-4.489-2.435-6.153-5.565s-2.057-5.889-1.168-8.205a9.937,9.937,0,0,1,3.133-4.086,3.842,3.842,0,0,0,.512,1.6l1.495,2.811a3.752,3.752,0,0,0-.3.774,6.556,6.556,0,0,0,.9,4.667,6.529,6.529,0,0,0,3.362,3.351,3.776,3.776,0,0,0,.806.186l.446.839c.009.019.019.038.03.058l.392.74.891,1.676a2.714,2.714,0,0,0,.72.867h0a11.268,11.268,0,0,1-3.192.5A8.241,8.241,0,0,1,101.173,49.393Zm-48.161-.414a2.638,2.638,0,0,1-1.5-1.3l-1.629-3.064-.72-1.355h0l-12.334-23.2a3.554,3.554,0,0,1-.57-2.907,2.376,2.376,0,0,1,1.227-1.531L41.7,13.386a2.281,2.281,0,0,1,1.9-.13,2.635,2.635,0,0,1,1.506,1.3l7.286,13.709a2.01,2.01,0,0,0,1.868.6l13.547-7.2a1.812,1.812,0,0,0,.515-1.789l-.031-.1L61.013,6.1a2.656,2.656,0,0,1-.185-2,2.381,2.381,0,0,1,1.227-1.53l4.3-2.285a2.282,2.282,0,0,1,1.9-.131,2.68,2.68,0,0,1,1.543,1.283L79.614,19.9a2.028,2.028,0,0,1-.831,2.731l-21.6,11.485a2,2,0,0,0-.538,2.151l2.024,3.809.058.108,1.059,1.993a3.555,3.555,0,0,1,.571,2.905,2.379,2.379,0,0,1-1.228,1.533l-4.214,2.236a2.263,2.263,0,0,1-1.074.276A2.505,2.505,0,0,1,53.012,48.979Zm54.394-.593a1.441,1.441,0,0,1-.823-.713L105.692,46l-.393-.741h0L98.556,32.574a1.948,1.948,0,0,1-.311-1.59,1.3,1.3,0,0,1,.671-.837l2.3-1.222a1.247,1.247,0,0,1,1.037-.071,1.445,1.445,0,0,1,.824.712l3.983,7.5a1.1,1.1,0,0,0,1.021.329l7.407-3.938a.988.988,0,0,0,.282-.978l-.017-.052-3.976-7.481a1.452,1.452,0,0,1-.1-1.1,1.3,1.3,0,0,1,.671-.837l2.35-1.249a1.249,1.249,0,0,1,1.038-.072,1.467,1.467,0,0,1,.843.7l5.369,10.1a1.106,1.106,0,0,1-.454,1.492l-11.812,6.28a1.1,1.1,0,0,0-.3,1.175l1.108,2.083.031.059.58,1.09a1.94,1.94,0,0,1,.311,1.589,1.3,1.3,0,0,1-.671.838l-2.3,1.222a1.239,1.239,0,0,1-.589.152A1.372,1.372,0,0,1,107.406,48.386Zm5.273-2.7a3.861,3.861,0,0,0-.511-1.583l-.579-1.089-.032-.059-.921-1.732c.021-.042.041-.087.063-.135l5.461-2.9a7.49,7.49,0,0,1-.41,3.467,9.84,9.84,0,0,1-3.071,4.036l0,0ZM62.656,44.047a7.044,7.044,0,0,0-.935-2.9l-1.059-1.993-.057-.108-1.684-3.168c.038-.078.076-.161.113-.247l10-5.314a13.654,13.654,0,0,1-.755,6.343,16.758,16.758,0,0,1-4.014,5.951c-.492.485-1.031.969-1.6,1.438h0Zm58.436-3.081a2.809,2.809,0,0,1-1.733-3.26,3.824,3.824,0,0,1,3.577-1.9,2.816,2.816,0,0,1,1.732,3.262,3.076,3.076,0,0,1-1.515,1.463,3.549,3.549,0,0,1-1.637.481A2.026,2.026,0,0,1,121.092,40.966Zm-43.05-5.558a4.175,4.175,0,0,1-2.7-2.387,4.164,4.164,0,0,1-.466-3.574,5.635,5.635,0,0,1,2.774-2.679,5.625,5.625,0,0,1,3.769-.8,4.173,4.173,0,0,1,2.7,2.387,4.185,4.185,0,0,1,.469,3.578,5.61,5.61,0,0,1-2.768,2.677,6.494,6.494,0,0,1-2.993.88A3.711,3.711,0,0,1,78.043,35.409ZM106.634,32.5a3.8,3.8,0,0,0-.727-.18L104.142,29a2.694,2.694,0,0,0-.713-.861,9.826,9.826,0,0,1,5-.272c2.235.521,4.178,2.169,5.773,4.9v0h0l-4.586,2.438A6.052,6.052,0,0,0,106.634,32.5ZM51.6,19.927a6.876,6.876,0,0,0-1.33-.328l-3.227-6.072a4.945,4.945,0,0,0-1.307-1.579c.672-.2,1.335-.361,1.967-.49a16.879,16.879,0,0,1,7.187,0,13.8,13.8,0,0,1,6.135,3.318,23.7,23.7,0,0,1,4.424,5.639h0l-8.388,4.46A11.088,11.088,0,0,0,51.6,19.927Z" transform="translate(-0.003 0)" fill="rgba(46,30,148,0.4)"></path>
  </symbol>
</svg>