<svg xmlns="http://www.w3.org/2000/svg" viewBox="0 0 1366 244.537" preserveAspectRatio="none">
  <path id="Combined_Shape" data-name="Combined Shape" d="M989.172-232.009a12.528,12.528,0,0,0,12.528,12.527,12.527,12.527,0,0,0,12.527-12.527,12.528,12.528,0,0,0-12.527-12.528A12.528,12.528,0,0,0,989.172-232.009ZM910-190.92a28.563,28.563,0,0,0,28.563,28.563,28.563,28.563,0,0,0,28.562-28.563,28.563,28.563,0,0,0-28.562-28.562A28.563,28.563,0,0,0,910-190.92ZM104.554-79.754Q39.366-45.869,0-20.4V0H1366V-63.389a213.587,213.587,0,0,1-58.214,7.837c-129.568,0-100.865-56.473-217.523-68.344S921.156-79.754,837.237-79.754s-124.381-25.24-243-79.869c-35.506-16.334-78.088-23.78-125-23.78C359.589-183.4,226.3-142.715,104.554-79.754ZM64.141-139.306a23.049,23.049,0,0,0,23.05,23.05,23.05,23.05,0,0,0,23.051-23.05,23.051,23.051,0,0,0-23.051-23.051A23.05,23.05,0,0,0,64.141-139.306Z" transform="translate(0 244.537)" fill="var(--clr-white)"/>
</svg>